HIERARCHY
ROOT joint_0
{
	OFFSET 0.000000 0.000000 0.000000
	CHANNELS 6 Xposition Yposition Zposition Zrotation Yrotation Xrotation 
	JOINT joint_1
	{
		OFFSET 0.000000 0.000000 0.000000
		CHANNELS 3 Zrotation Yrotation Xrotation
		JOINT joint_2
		{
			OFFSET 3.811170 -8.520760 0.839290
			CHANNELS 3 Zrotation Yrotation Xrotation
			JOINT joint_3
			{
				OFFSET 2.562200 -7.039590 0.000000
				CHANNELS 3 Zrotation Yrotation Xrotation
				JOINT joint_4
				{
					OFFSET 0.157640 -0.433110 2.322550
					CHANNELS 3 Zrotation Yrotation Xrotation
					End Site
					{
						OFFSET 0.000000 0.000000 0.000000
					}
				}
			}
		}
	}
	JOINT joint_5
	{
		OFFSET 0.000000 0.000000 0.000000
		CHANNELS 3 Zrotation Yrotation Xrotation
		JOINT joint_6
		{
			OFFSET -3.848050 -8.780180 0.839290
			CHANNELS 3 Zrotation Yrotation Xrotation
			JOINT joint_7
			{
				OFFSET -2.568260 -7.056230 0.000000
				CHANNELS 3 Zrotation Yrotation Xrotation
				JOINT joint_8
				{
					OFFSET -0.164730 -0.452590 2.363150
					CHANNELS 3 Zrotation Yrotation Xrotation
					End Site
					{
						OFFSET 0.000000 0.000000 0.000000
					}
				}
			}
		}
	}
	JOINT joint_9
	{
		OFFSET 0.028270 2.035590 -0.193380
		CHANNELS 3 Zrotation Yrotation Xrotation
		JOINT joint_10
		{
			OFFSET 0.056720 2.048850 -0.042750
			CHANNELS 3 Zrotation Yrotation Xrotation
			JOINT joint_11
			{
				OFFSET -0.054170 1.746240 0.172020
				CHANNELS 3 Zrotation Yrotation Xrotation
				JOINT joint_12
				{
					OFFSET 0.104070 1.761360 -0.123970
					CHANNELS 3 Zrotation Yrotation Xrotation
					End Site
					{
						OFFSET 0.000000 0.000000 0.000000
					}
				}
			}
			JOINT joint_13
			{
				OFFSET 3.362410 1.200890 -0.311210
				CHANNELS 3 Zrotation Yrotation Xrotation
				JOINT joint_14
				{
					OFFSET 4.983000 -0.000000 -0.000000
					CHANNELS 3 Zrotation Yrotation Xrotation
					JOINT joint_15
					{
						OFFSET 3.483560 -0.000000 -0.000000
						CHANNELS 3 Zrotation Yrotation Xrotation
						JOINT joint_16
						{
							OFFSET 0.715260 -0.000000 -0.000000
							CHANNELS 3 Zrotation Yrotation Xrotation
							End Site
							{
								OFFSET 0.000000 0.000000 0.000000
							}
						}
					}
				}
			}
			JOINT joint_17
			{
				OFFSET -3.136600 1.374050 -0.404650
				CHANNELS 3 Zrotation Yrotation Xrotation
				JOINT joint_18
				{
					OFFSET -5.241900 -0.000000 -0.000000
					CHANNELS 3 Zrotation Yrotation Xrotation
					JOINT joint_19
					{
						OFFSET -3.444170 -0.000000 -0.000000
						CHANNELS 3 Zrotation Yrotation Xrotation
						JOINT joint_20
						{
							OFFSET -0.622530 -0.000000 -0.000000
							CHANNELS 3 Zrotation Yrotation Xrotation
							End Site
							{
								OFFSET 0.000000 0.000000 0.000000
							}
						}
					}
				}
			}
		}
	}
}
MOTION
Frames: 13
Frame Time: 0.031667
-2.459858 14.507683 5.742495 170.276443 -42.221558 178.379807 -35.629186 -27.164741 -28.820500 -11.898528 10.568017 30.438289 -4.809363 2.272230 -20.702584 0.557229 -0.603222 1.592586 -10.623704 -2.537234 13.685981 18.027665 2.597426 -8.895660 -12.435522 -2.510243 -69.239416 1.028594 -0.331797 0.534635 2.263191 3.371493 -0.908891 -1.648335 -0.172928 -2.697160 3.866242 1.955555 0.660002 -1.402898 2.061094 6.964506 -66.664324 -2.025156 -1.279485 15.149665 -48.429162 3.347573 3.692815 4.151369 1.156186 -6.448219 -0.598955 0.628288 109.410610 12.763618 50.957884 -99.792348 78.585283 -42.884258 2.250733 -4.494301 2.453966 7.873649 -0.675434 0.663074 
-2.618448 14.527208 5.658350 170.375656 -37.557163 178.634201 -32.966626 -24.144082 -33.300298 -11.923943 11.273848 31.613458 -1.373260 1.339626 -12.667141 0.615599 -0.790147 1.172826 -10.789111 -3.346487 13.715713 18.084710 2.389967 -8.695703 -12.506538 -2.169302 -68.755464 1.060399 -0.239255 0.275741 1.808623 3.403249 -0.812092 -1.929075 0.058152 -2.580339 3.884177 1.936843 0.459989 -1.212687 2.109688 6.897425 -65.265362 -1.553008 -1.207761 15.305678 -49.316018 3.056842 3.444908 4.221345 1.285752 -6.427516 -0.609315 0.645302 108.939340 13.348318 51.389514 -99.006439 78.562254 -42.005184 2.496786 -4.551474 2.276498 7.905719 -0.690940 0.679081 
-2.764054 14.545231 5.564871 170.413406 -32.941769 178.892181 -31.001426 -21.330979 -36.919050 -11.990582 11.739311 32.286712 0.958558 -0.148950 -7.761047 0.658286 -0.920476 0.882558 -11.113804 -3.898637 13.716887 18.163508 2.281035 -8.794803 -12.535059 -2.226559 -68.351970 1.071701 -0.172314 0.098869 1.388200 3.431931 -0.659590 -2.107571 0.237950 -2.439958 3.766173 1.767100 0.417102 -1.023579 2.100726 6.783563 -64.009088 -1.249363 -1.010589 15.646507 -50.244617 2.599856 3.222250 4.307020 1.289889 -6.416075 -0.615022 0.655254 108.474153 13.867298 51.524356 -98.735557 78.573662 -41.259858 2.686140 -4.636284 2.148360 7.931526 -0.699287 0.687782 
-2.906213 14.562422 5.467940 170.488632 -28.315804 179.197021 -29.254270 -18.554069 -39.735693 -12.010060 12.097013 32.691431 2.504989 -1.819037 -5.177529 0.679590 -0.970072 0.769631 -11.525233 -4.308005 13.695190 18.254980 2.238042 -9.149562 -12.457443 -2.570318 -67.986781 1.062482 -0.134203 0.012019 1.034897 3.505108 -0.563713 -2.292565 0.401573 -2.286481 3.546758 1.550407 0.458479 -0.806706 2.037915 6.555645 -62.771223 -1.016660 -0.858767 16.057551 -51.281470 2.039355 3.046949 4.415625 1.248679 -6.412076 -0.614691 0.656889 108.037700 14.352006 51.406669 -99.045288 78.649225 -40.698846 2.808166 -4.683195 2.112517 7.945853 -0.700277 0.688659 
-3.037075 14.576888 5.359700 170.548111 -23.823706 179.467407 -27.540431 -15.966926 -41.823662 -12.015903 12.358555 32.906478 3.583192 -3.401299 -4.157790 0.689304 -0.934276 0.876785 -11.954152 -4.631363 13.595273 18.391139 2.263899 -9.602924 -12.261051 -3.182388 -67.541303 1.041005 -0.115996 -0.019820 0.799514 3.593866 -0.569816 -2.469672 0.605574 -2.148848 3.242687 1.338957 0.544184 -0.555417 1.923070 6.244894 -61.588173 -0.815142 -0.759806 16.525649 -52.425364 1.489265 2.886100 4.552763 1.239603 -6.410905 -0.613547 0.655748 107.622002 14.828660 51.130001 -99.636205 78.758625 -40.200858 2.904179 -4.760470 2.175921 7.956428 -0.699302 0.687116 
-3.164959 14.590025 5.247998 170.648514 -19.354546 179.764572 -25.909254 -13.614341 -43.310886 -12.055361 12.604158 33.009546 4.386136 -4.845095 -3.883806 0.694206 -0.869404 1.048643 -12.376543 -4.896814 13.350233 18.569510 2.290319 -10.068790 -11.936008 -4.041114 -66.956640 1.007852 -0.101427 -0.043481 0.626734 3.627095 -0.646350 -2.687847 0.812568 -2.044313 2.886302 1.127645 0.616474 -0.285957 1.778519 5.895789 -60.437704 -0.679803 -0.704866 17.065482 -53.611978 0.890627 2.733360 4.687745 1.265276 -6.412111 -0.610112 0.651846 107.214939 15.270064 50.720268 -100.238195 78.866230 -39.634829 2.991867 -4.827699 2.321227 7.962565 -0.695717 0.682883 
-3.282469 14.598531 5.124234 170.778320 -15.053505 -179.976471 -24.484364 -11.556142 -44.285654 -12.141267 12.798090 33.010191 4.959387 -6.172318 -3.911373 0.698274 -0.813497 1.186043 -12.801741 -5.159017 13.016864 18.802391 2.333074 -10.579279 -11.457026 -5.141585 -66.195212 0.967650 -0.095382 -0.046814 0.496893 3.659782 -0.749870 -2.915785 0.989385 -2.006065 2.503777 0.914940 0.662638 -0.023127 1.633989 5.555704 -59.354066 -0.628263 -0.654199 17.778366 -54.864553 0.204069 2.581867 4.796526 1.276215 -6.414795 -0.605294 0.646144 106.804278 15.664353 50.184012 -100.672833 78.955476 -39.016586 3.072626 -4.905252 2.491651 7.964840 -0.690386 0.676902 
-3.397201 14.605514 4.997565 170.957077 -10.781870 -179.693497 -23.326317 -9.765278 -44.956498 -12.225132 12.961484 32.945962 5.334646 -7.443168 -4.066152 0.702265 -0.786848 1.244352 -13.214998 -5.395006 12.630809 19.059299 2.408890 -11.177955 -10.850722 -6.405331 -65.248470 0.927227 -0.105192 -0.009083 0.383580 3.719912 -0.861930 -3.104373 1.133543 -2.038831 2.119241 0.677658 0.714577 0.236360 1.483028 5.267192 -58.373621 -0.640875 -0.628422 18.683533 -56.078490 -0.486933 2.436798 4.877462 1.256015 -6.416209 -0.601864 0.640742 106.379794 15.976313 49.588729 -100.797109 78.999030 -38.290972 3.151145 -4.966082 2.614877 7.965026 -0.685730 0.671375 
-3.501622 14.606843 4.860115 171.189468 -6.673385 -179.448105 -22.361485 -8.293821 -45.416200 -12.327219 13.142583 32.876445 5.568571 -8.594401 -4.281652 0.709707 -0.787548 1.232092 -13.597739 -5.646029 12.219493 19.340760 2.484679 -11.822203 -10.126902 -7.765591 -64.134774 0.889105 -0.126614 0.058025 0.318058 3.800693 -0.977616 -3.259920 1.274256 -2.120208 1.766959 0.462305 0.762507 0.494440 1.335851 5.027214 -57.481609 -0.729558 -0.634386 19.713380 -57.219354 -1.189048 2.290540 4.915520 1.200590 -6.415760 -0.600131 0.636169 105.980422 16.246851 48.988291 -100.416879 78.999290 -37.430220 3.226229 -4.998548 2.659061 7.963813 -0.682356 0.666915 
-3.603539 14.607029 4.720396 171.478287 -2.584581 -179.173004 -21.553117 -7.084673 -45.689201 -12.450373 13.337755 32.800331 5.750239 -9.670278 -4.592218 0.719928 -0.804451 1.178247 -13.946843 -5.915552 11.764149 19.639387 2.533934 -12.457930 -9.311224 -9.185815 -62.854621 0.854223 -0.151614 0.133050 0.273299 3.885388 -1.090818 -3.387651 1.396002 -2.221816 1.453614 0.263268 0.794581 0.750224 1.192821 4.815723 -56.676725 -0.908479 -0.716093 20.831255 -58.275204 -1.898856 2.139806 4.935367 1.136121 -6.414142 -0.599932 0.632360 105.606340 16.496329 48.418323 -99.572056 78.970574 -36.432872 3.300594 -5.009430 2.658889 7.962357 -0.680111 0.663364 
-3.695530 14.602684 4.571686 171.832626 1.375654 -178.939560 -20.873541 -6.075756 -45.799497 -12.597679 13.545756 32.711388 5.901856 -10.648440 -5.054504 0.730873 -0.820379 1.129139 -14.254141 -6.207070 11.263622 19.953500 2.543521 -13.038909 -8.433817 -10.609668 -61.420448 0.823638 -0.177247 0.208023 0.238836 3.951482 -1.197432 -3.473782 1.494817 -2.344845 1.163488 0.068555 0.817633 0.978808 1.048330 4.619153 -55.959966 -1.163635 -0.909105 22.027767 -59.251418 -2.608514 1.988284 4.944340 1.096100 -6.412097 -0.601382 0.629320 105.265010 16.726824 47.901334 -98.290952 78.926025 -35.248255 3.364778 -5.006689 2.639947 7.961404 -0.678827 0.660609 
-3.785338 14.597994 4.421126 172.246323 5.330235 -178.664795 -20.278377 -5.207853 -45.800137 -12.774172 13.753780 32.599469 6.038461 -11.472482 -5.627599 0.741032 -0.829764 1.097016 -14.512069 -6.526156 10.724467 20.286965 2.501851 -13.517903 -7.522153 -11.990400 -59.841899 0.798787 -0.202638 0.280662 0.208579 3.986786 -1.297844 -3.519719 1.567366 -2.494227 0.889586 -0.130117 0.836315 1.169527 0.901488 4.436171 -55.321734 -1.485960 -1.219654 23.298043 -60.148909 -3.315501 1.838105 4.937545 1.092854 -6.410315 -0.603795 0.626686 104.954100 16.935868 47.447650 -96.592451 78.863543 -33.859154 3.417613 -4.997401 2.613591 7.960999 -0.677965 0.658201 
-3.865871 14.591835 4.262709 172.722534 9.200757 -178.432083 -19.735352 -4.423027 -45.729540 -12.962333 13.967740 32.490317 6.166932 -12.142891 -6.257388 0.750577 -0.835381 1.073618 -14.705581 -6.875980 10.152205 20.628699 2.391434 -13.829295 -6.593984 -13.270339 -58.124774 0.783846 -0.227077 0.349007 0.181700 3.992798 -1.392553 -3.533924 1.617408 -2.667885 0.633412 -0.331661 0.853814 1.327968 0.755827 4.262404 -54.760702 -1.862653 -1.625004 24.696089 -61.024087 -4.061171 1.688967 4.915481 1.116551 -6.408594 -0.607016 0.624508 104.666701 17.117915 47.062880 -94.537618 78.781872 -32.324380 3.457733 -4.984893 2.574464 7.961193 -0.677482 0.656168 
